<?xml version="1.0" encoding="utf-8"?>
<!-- Generator: Adobe Illustrator 20.1.0, SVG Export Plug-In . SVG Version: 6.00 Build 0)  -->
<svg version="1.1" id="Layer_1" xmlns="http://www.w3.org/2000/svg" xmlns:xlink="http://www.w3.org/1999/xlink" x="0px" y="0px"
	 viewBox="0 0 249.4 59.4" style="enable-background:new 0 0 249.4 59.4;" xml:space="preserve">
<style type="text/css">
	.st0{fill:#FFFFFF;}
	.st1{fill:#D6B36A;}
	.st2{fill-rule:evenodd;clip-rule:evenodd;fill:#D6B36A;}
	.st3{fill-rule:evenodd;clip-rule:evenodd;fill:#FFFFFF;}
</style>
<path class="st0" d="M249.1,4.2V0.6h-14.4v21.6h14.4v-3.6h-10.8v-5.4h9V9.6h-9V4.2H249.1z M224.1,18.6v-18h-3.6v21.6h11.6v-3.6
	H224.1z M209.4,9.1l2.6,7.5h-5.3L209.4,9.1z M214.2,22.2h3.9L209.4,0l-8.6,22.2h3.9l0.9-2.5h7.6L214.2,22.2z M192.5,22.5
	c3.5,0,6.7-2.3,6.7-6.4c0-2.6-1.2-4.7-3.5-5.8c-1.5-0.7-3.1-0.7-3.2-0.7c-1.6,0-3.1-1-3.1-2.7c0-2,1.5-3,3.1-3c1.6,0,3,0.8,3.1,2.6
	h3.6c-0.1-3.7-2.9-6.2-6.7-6.2c-3.5,0-6.8,2.5-6.8,6.6c0,2.6,1.3,4.5,3.5,5.5c1.6,0.7,3.1,0.7,3.2,0.7c1.5,0.1,3.1,1.2,3.1,3
	c0,1.7-1.5,2.8-3.1,2.8c-1.6,0-3.1-0.9-3.1-2.7h-3.6C185.8,20.3,188.8,22.5,192.5,22.5z M169.7,18.7V4.1c0,0,9-1.4,9,7.3
	C178.7,19.9,169.7,18.7,169.7,18.7z M166.1,0.6v21.6h3.6c5.4,0,12.6-1.6,12.6-10.8c0-9.6-7.4-10.8-12.6-10.8H166.1z M163.6,0.6h-3.9
	l-4.8,12.8l-4.8-12.8h-4l-4.8,12.8l-4.7-12.8h-3.9l8.6,22.5l6.8-17.8l6.8,17.8L163.6,0.6z M120.4,19c-9.4,0-9.3-15.2,0-15.2
	C129.7,3.9,129.7,19,120.4,19z M120.4,0.3c-14.2,0-14.3,22.2,0,22.2C134.6,22.5,134.5,0.3,120.4,0.3z M95.6,4.2h3.6
	c0,0,3.6,0,3.6,2.7c0,2.7-3.6,2.7-3.6,2.7h-3.6V4.2z M102.7,22.2h4l-4.4-9.6c1.9-0.7,4.2-2.3,4.2-5.7c0-6.3-7.2-6.3-7.2-6.3H92v21.6
	h3.6v-9h2.9L102.7,22.2z M80.7,18.9c-4,0-7.2-2.9-7.2-7.5c0-4.4,2.7-7.5,7.2-7.5c2,0,3.8,0.8,5.1,2.1l2.5-2.5
	c-1.9-2-4.6-3.2-7.6-3.2c-6.3,0-10.8,4.6-10.8,11.1c0,6.8,4.9,11.1,10.8,11.1c3,0,5.7-1.2,7.6-3.2l-2.5-2.6
	C84.5,18.1,82.7,18.9,80.7,18.9z"/>
<path class="st1" d="M249.3,31.8h-5.5l-10.9,13.4V31.8h-4.4v26.6h4.4v-7.3l2.5-2.8l8.2,10.1h5.8l-11.1-13.1L249.3,31.8z M210.1,36.2
	h4.4c0,0,4.4,0,4.4,3.3c0,3.3-4.4,3.3-4.4,3.3h-4.4V36.2z M218.8,58.4h4.9l-5.4-11.8c2.4-0.9,5.1-2.8,5.1-7.1c0-7.7-8.9-7.7-8.9-7.7
	h-8.9v26.6h4.4V47.3h3.6L218.8,58.4z M187.5,54.4c-11.5,0-11.5-18.7,0-18.7C199,35.7,199,54.4,187.5,54.4z M187.5,31.4
	c-17.5,0-17.5,27.3,0,27.3C205,58.7,204.9,31.4,187.5,31.4z M172.3,31.8h-4.8l-5.8,15.7l-5.9-15.7h-4.9l-5.8,15.7l-5.8-15.7h-4.8
	l10.6,27.7l8.3-21.9l8.3,21.9L172.3,31.8z M133.7,31.8h-15.6v4.1h5.6v22.5h4.4V35.8h5.6V31.8z M115.8,36.2v-4.4H98v26.6h17.7v-4.4
	h-13.3v-6.6h11.1v-4.4h-11.1v-6.6H115.8z M92,31.8h-4.4v18.9L74.3,31.8h-4.5v26.6h4.4V39.4l13.2,18.9H92V31.8z"/>
<path class="st2" d="M52.9,12.6c3.3,4.7,5.3,10.5,5.3,16.8c0,16.1-13,29.1-29.1,29.1c-8.8,0-16.8-3.9-22.1-10.2l0.1-0.2L25,25.4
	l7.1,16.4L52.9,12.6z"/>
<path class="st3" d="M29.1,0.3c7.9,0,15,3.1,20.2,8.2L33.2,31l-6.9-16L3.9,43.6l-0.1,0.1C1.4,39.5,0,34.6,0,29.4
	C0,13.3,13,0.3,29.1,0.3"/>
</svg>
